<?xml version="1.0" encoding="iso-8859-1"?>
<!-- Generator: Adobe Illustrator 19.0.0, SVG Export Plug-In . SVG Version: 6.00 Build 0)  -->
<svg xmlns="http://www.w3.org/2000/svg" xmlns:xlink="http://www.w3.org/1999/xlink" version="1.1" id="Layer_1" x="0px" y="0px" viewBox="0 0 512 512" style="enable-background:new 0 0 512 512;" xml:space="preserve" width="512" height="512" fill="rgb(204, 202, 202)">
<g>
	<path d="M256,294.376l-63.723,103.078C184.899,409.322,181,422.997,181,437c0,41.355,33.645,75,75,75s75-33.645,75-75   c0-14.003-3.899-27.678-11.258-39.516L256,294.376z M256,482c-24.813,0-45-20.187-45-45c0-8.4,2.336-16.599,6.775-23.74   L256,351.428l38.244,61.863C298.664,420.401,301,428.6,301,437C301,461.813,280.813,482,256,482z"/>
	<path d="M91,294.376l-50.977,82.459C34.12,386.331,31,397.272,31,408.476c0,33.084,26.916,60,60,60s60-26.916,60-60   c0-11.204-3.12-22.145-9.004-31.609L91,294.376z M91,438.476c-16.542,0-30-13.458-30-30c0-5.6,1.557-11.064,4.521-15.833   L91,351.428l25.498,41.246c2.945,4.737,4.502,10.202,4.502,15.802C121,425.018,107.542,438.476,91,438.476z"/>
	<path d="M421,294.376l-50.977,82.459c-5.903,9.496-9.023,20.437-9.023,31.641c0,33.084,26.916,60,60,60s60-26.916,60-60   c0-11.204-3.12-22.145-9.004-31.609L421,294.376z M421,438.476c-16.542,0-30-13.458-30-30c0-5.6,1.557-11.064,4.521-15.833   L421,351.428l25.498,41.246c2.945,4.737,4.502,10.202,4.502,15.802C451,425.018,437.542,438.476,421,438.476z"/>
	<path d="M490.834,144.792c-10.403-10.72-23.512-17.963-37.824-21.064C447.126,87.634,415.729,60,378,60   c-2.654,0-5.303,0.138-7.935,0.413C344.945,22.898,302.551,0,257,0s-87.945,22.898-113.065,60.413   C141.303,60.138,138.654,60,136,60c-37.581,0-68.879,27.418-74.939,63.303C26.34,129.861,0,160.413,0,197c0,41.355,33.645,75,75,75   h362c41.355,0,75-33.645,75-75C512,177.397,504.483,158.856,490.834,144.792z M437,242H75c-24.813,0-45-20.187-45-45   s20.198-45,45.025-45h15.268l-0.27-15.265c-0.004-0.222-0.012-0.442-0.019-0.663L90,136c0-25.364,20.636-46,46-46   c3.928,0,7.831,0.496,11.601,1.475l11.2,2.907l5.655-10.095C183.213,50.801,218.674,30,257,30s73.787,20.801,92.544,54.286   l5.655,10.095l11.2-2.907C370.169,90.496,374.072,90,378,90c25.364,0,46,20.636,46.001,45.918l-0.006,0.182   c-0.008,0.232-0.016,0.464-0.02,0.698l-0.248,14.767l14.761,0.478C462.888,152.832,482,172.58,482,197   C482,221.813,461.813,242,437,242z"/>
</g>















</svg>
