<svg xmlns="http://www.w3.org/2000/svg" height="798pt" version="1.1" viewBox="0 -8 798.75179 798" width="798pt">
<g id="surface1">
<path d="M 455.664062 159.644531 C 455.664062 128.597656 430.417969 103.351562 399.375 103.351562 C 368.335938 103.351562 343.09375 128.597656 343.09375 159.644531 C 343.09375 190.628906 368.28125 215.933594 399.375 215.933594 C 430.632812 215.933594 455.664062 190.453125 455.664062 159.644531 Z M 455.664062 159.644531 " style=" stroke:none;fill-rule:nonzero;fill:#fff;fill-opacity:1;" />
<path d="M 569.246094 170.25 C 569.246094 76.578125 493.042969 0.375 399.375 0.375 C 305.703125 0.375 229.5 76.578125 229.5 170.25 C 229.5 250.824219 359.707031 489.921875 399.375 560.234375 C 438.675781 490.566406 569.246094 250.941406 569.246094 170.25 Z M 293.417969 159.644531 C 293.417969 101.21875 340.953125 53.6875 399.375 53.6875 C 457.796875 53.6875 505.328125 101.21875 505.328125 159.644531 C 505.328125 218.160156 457.683594 265.597656 399.375 265.597656 C 340.71875 265.597656 293.417969 217.804688 293.417969 159.644531 Z M 293.417969 159.644531 " style=" stroke:none;fill-rule:nonzero;fill:#fff;fill-opacity:1;" />
<path d="M 213.808594 689.230469 L 201.238281 782.199219 L 598.433594 782.199219 L 585.988281 689.230469 Z M 213.808594 689.230469 " style=" stroke:none;fill-rule:nonzero;fill:#fff;fill-opacity:1;" />
<path d="M 26.285156 639.566406 L 170.394531 639.566406 L 183.992188 539.027344 L 49.265625 539.027344 Z M 26.285156 639.566406 " style=" stroke:none;fill-rule:nonzero;fill:#fff;fill-opacity:1;" />
<path d="M 494.355469 489.363281 L 559.238281 489.363281 L 546.808594 396.386719 L 541.253906 396.386719 C 526.367188 427.332031 510.042969 459.535156 494.355469 489.363281 Z M 494.355469 489.363281 " style=" stroke:none;fill-rule:nonzero;fill:#fff;fill-opacity:1;" />
<path d="M 565.894531 539.027344 L 467.765625 539.027344 C 440.949219 588.261719 421.109375 622.1875 420.804688 622.71875 C 416.347656 630.332031 408.199219 634.992188 399.375 634.992188 C 390.550781 634.992188 382.410156 630.332031 377.953125 622.71875 C 377.636719 622.1875 357.800781 588.261719 330.984375 539.027344 L 234.097656 539.027344 L 220.511719 639.566406 L 579.347656 639.566406 Z M 565.894531 539.027344 " style=" stroke:none;fill-rule:nonzero;fill:#fff;fill-opacity:1;" />
<path d="M 0.625 751.835938 C -1.0625 759.203125 0.707031 766.941406 5.417969 772.855469 C 10.125 778.761719 17.273438 782.210938 24.832031 782.210938 L 151.113281 782.210938 L 163.671875 689.230469 L 14.933594 689.230469 Z M 0.625 751.835938 " style=" stroke:none;fill-rule:nonzero;fill:#fff;fill-opacity:1;" />
<path d="M 798.128906 751.835938 L 783.820312 689.230469 L 636.101562 689.230469 L 648.542969 782.199219 L 773.917969 782.199219 C 781.472656 782.199219 788.621094 778.757812 793.335938 772.851562 C 798.050781 766.941406 799.808594 759.203125 798.128906 751.835938 Z M 798.128906 751.835938 " style=" stroke:none;fill-rule:nonzero;fill:#fff;fill-opacity:1;" />
<path d="M 240.820312 489.363281 L 304.394531 489.363281 C 286.6875 455.683594 270.816406 424.082031 257.492188 396.386719 L 253.375 396.386719 Z M 240.820312 489.363281 " style=" stroke:none;fill-rule:nonzero;fill:#fff;fill-opacity:1;" />
<path d="M 101.664062 396.386719 C 90.078125 396.386719 80.035156 404.390625 77.453125 415.683594 L 60.613281 489.363281 L 190.695312 489.363281 L 203.261719 396.386719 Z M 101.664062 396.386719 " style=" stroke:none;fill-rule:nonzero;fill:#fff;fill-opacity:1;" />
<path d="M 749.484375 539.027344 L 616 539.027344 L 629.445312 639.566406 L 772.464844 639.566406 Z M 749.484375 539.027344 " style=" stroke:none;fill-rule:nonzero;fill:#fff;fill-opacity:1;" />
<path d="M 721.296875 415.683594 C 718.710938 404.390625 708.667969 396.386719 697.085938 396.386719 L 596.90625 396.386719 L 609.347656 489.363281 L 738.132812 489.363281 Z M 721.296875 415.683594 " style=" stroke:none;fill-rule:nonzero;fill:#fff;fill-opacity:1;" />
</g>
</svg>