<?xml version="1.0" encoding="iso-8859-1"?>
<!-- Generator: Adobe Illustrator 19.0.0, SVG Export Plug-In . SVG Version: 6.00 Build 0)  -->
<svg version="1.1" id="Capa_1" xmlns="http://www.w3.org/2000/svg" xmlns:xlink="http://www.w3.org/1999/xlink" x="0px" y="0px"
	 viewBox="0 0 512 512" style="enable-background:new 0 0 512 512;" xml:space="preserve" fill="#fff">
<g>
	<g>
		<path d="M472.309,119.039C425.42,45.117,345.259,0.628,257.862,0.011c-0.003,0-0.007,0-0.01,0c-0.004,0-0.008,0-0.011,0
			c-0.032,0-0.065-0.001-0.097-0.001c-0.023,0-0.045,0-0.067,0c-0.003,0-0.006,0-0.009,0c-0.536-0.008-1.067-0.01-1.6-0.009
			C256.044,0.001,256.022,0,256,0c-0.013,0-0.026,0.001-0.039,0.001c-0.694,0.002-1.392,0.009-2.107,0.02h-0.001
			c-0.002,0-0.004,0-0.006,0c-0.028,0-0.054,0-0.082,0.001c-0.036,0.001-0.072,0.003-0.108,0.003
			c-35.915,0.312-70.477,7.884-102.855,22.518c-8.031-7.259-18.6-11.439-29.568-11.439c-24.285,0-44.042,19.757-44.042,44.042
			c0,3.921,0.906,8.764,2.813,14.953c-15.417,14.604-28.967,31.036-40.323,48.937c-7.251,11.428-13.634,23.514-18.97,35.924
			c-2.191,5.094,0.164,10.998,5.257,13.189c1.293,0.556,2.637,0.819,3.96,0.819c3.89,0,7.594-2.276,9.227-6.076
			c4.195-9.757,9.1-19.294,14.599-28.427h40.81c-13.204,34.255-20.635,72.335-21.72,111.495H20.296
			c0.295-7.066,0.893-14.098,1.804-21.004c0.725-5.497-3.143-10.541-8.64-11.266c-5.495-0.721-10.54,3.143-11.266,8.64
			C0.738,233.372,0,244.7,0,256c0,48.699,13.726,96.06,39.691,136.961c22.681,35.755,54.161,65.611,91.037,86.342
			C168.775,500.694,212.094,512,256,512c43.906,0,87.225-11.306,125.272-32.696c36.875-20.731,68.356-50.589,91.035-86.339
			C498.274,352.061,512,304.699,512,256C512,207.301,498.274,159.939,472.309,119.039z M491.702,245.961h-49.99
			c21.121-42.903,21.137-54.275,21.137-58.137c0-23.588-18.642-42.901-41.966-43.989c-1.101-3.16-2.249-6.286-3.438-9.37h40.79
			C478.567,168.21,490.037,206.461,491.702,245.961z M395.885,245.961h-51.198c-0.501-39.244-3.942-77.353-10.047-111.496h61.157
			c1.792,4.279,3.49,8.669,5.099,13.138c-15.476,6.959-26.132,22.623-26.132,40.22C374.764,198.01,381.866,217.542,395.885,245.961z
			 M344.686,266.039h61.47c2.305,4.356,3.774,7.024,3.857,7.174c1.71,3.102,4.924,5.049,8.447,5.17
			c-2.307,35.086-10.012,68.896-22.672,99.15H334.64C340.745,343.391,344.185,305.282,344.686,266.039z M394.842,187.824
			c0-11.775,8.762-21.96,20.384-23.699c14.774-2.152,27.545,9.296,27.545,23.699c-0.001,5.635-5.918,23.351-22.518,56.178
			c-0.012,0.024-0.024,0.047-0.036,0.071c-0.48,0.949-0.95,1.874-1.411,2.776C401.193,212.45,394.842,193.83,394.842,187.824z
			 M444.717,114.387h-35.89c-13.552-28.582-30.747-52.565-50.459-71.071C392.03,59.505,421.704,83.686,444.717,114.387z
			 M386.41,114.387h-55.756c-8.288-37.628-19.507-66.909-32.774-86.423C332.932,41.425,364.14,71.593,386.41,114.387z
			 M189.289,310.542c-1.072-14.549-1.709-29.448-1.905-44.503h137.222c-0.516,39.43-4.064,77.615-10.365,111.496h-91.305
			c4.945-13.251,5.646-19.499,5.646-23.211C228.582,331.645,211.349,312.919,189.289,310.542z M208.505,354.324
			c0,1.655-0.7,8.656-9.713,29.235c-0.009,0.02-0.018,0.04-0.027,0.06c-0.01,0.024-0.022,0.048-0.032,0.072
			c-3.297,7.545-7.368,16.135-12.106,25.542c-0.713,1.418-1.411,2.793-2.087,4.115c-4.371-8.547-9.671-19.311-14.203-29.665
			c-0.008-0.018-0.016-0.035-0.023-0.053c-0.012-0.028-0.025-0.056-0.037-0.084c-9.008-20.566-9.708-27.566-9.708-29.222
			c0-11.968,8.932-22.178,20.776-23.75c0.011-0.001,0.022-0.003,0.034-0.004c1.022-0.14,2.086-0.21,3.163-0.21
			C197.755,330.36,208.505,341.11,208.505,354.324z M187.384,245.961c0.517-39.407,4.068-77.592,10.376-111.496h116.481
			c6.303,33.879,9.85,72.065,10.365,111.496H187.384z M256,20.078c9.547,0,20.131,9.354,29.798,26.337
			c9.491,16.671,17.808,40.001,24.273,67.972H201.93c6.465-27.969,14.781-51.3,24.272-67.972
			C235.87,29.432,246.453,20.078,256,20.078z M164.801,60.402c15.237-14.83,31.873-25.729,49.315-32.431
			c-13.265,19.513-24.483,48.792-32.77,86.416h-37.736C155.881,89.649,162.984,71.557,164.801,60.402z M121.234,31.182
			c7.612,0,14.597,3.494,19.164,9.585c0.003,0.005,0.007,0.01,0.011,0.015c3.133,4.162,4.789,9.13,4.789,14.363l0.002,0.111
			c-0.002,0.042-0.004,0.085-0.005,0.129c-0.23,6.369-6.705,25.086-23.961,58.777c-0.015-0.028-0.029-0.057-0.043-0.085
			c-6.412-12.553-15.094-30.408-20.109-44.296c-0.003-0.008-0.006-0.017-0.009-0.025c-0.013-0.035-0.027-0.071-0.039-0.106
			c-3.394-9.412-3.762-13.278-3.762-14.504C97.27,41.932,108.02,31.182,121.234,31.182z M67.298,114.387
			c6.292-8.371,13.137-16.322,20.492-23.802c3.481,8.071,7.418,16.378,11.085,23.802H67.298z M113.266,141.774
			c1.881,2.46,4.814,3.944,7.967,3.944c3.66,0,7.031-1.993,8.796-5.2c0.071-0.13,1.297-2.359,3.259-6.054h44.071
			c-6.11,34.165-9.554,72.274-10.056,111.495H92.935C94.009,209.306,100.956,173.736,113.266,141.774z M167.305,266.039
			c0.202,15.883,0.879,31.61,2.031,46.955c-16.958,6.253-28.847,22.619-28.847,41.329c0,3.713,0.702,9.961,5.646,23.211H116.2
			c-14.137-33.789-22.107-72.011-23.265-111.496H167.305z M20.298,266.039h52.546c1.086,39.161,8.516,77.241,21.721,111.496h-40.8
			C33.433,343.79,21.963,305.539,20.298,266.039z M67.281,397.613h35.89c13.384,28.176,30.739,52.478,50.815,71.265
			C120.183,452.697,90.391,428.457,67.281,397.613z M125.581,397.614h28.991v-0.001c9.572,20.987,20.665,41.172,21.176,42.099
			c1.765,3.206,5.134,5.195,8.793,5.195c0,0,0.001,0,0.002,0c3.53,0,6.774-1.866,8.586-4.874
			c6.194,17.865,13.232,32.618,20.957,44.003C179.045,470.594,147.871,440.466,125.581,397.614z M256,491.922
			c-17.493,0-36.405-29.45-49.706-77.125c3.027-6.09,5.775-11.84,8.21-17.183h95.567c-6.465,27.969-14.782,51.3-24.273,67.971
			C276.131,482.568,265.547,491.922,256,491.922z M297.869,484.052c13.272-19.513,24.496-48.8,32.786-86.439h55.756
			C364.112,440.482,332.923,470.617,297.869,484.052z M357.995,468.888c20.079-18.788,37.437-43.094,50.824-71.274h35.899
			C421.605,428.462,391.807,452.706,357.995,468.888z M458.234,377.535h-40.81c13.205-34.257,20.636-72.337,21.722-111.496h52.555
			C490.037,305.539,478.567,343.788,458.234,377.535z"/>
	</g>
</g>
<g>
	<g>
		<path d="M418.804,177.787c-12.919,0-12.941,20.078,0,20.078C431.723,197.866,431.745,177.787,418.804,177.787z"/>
	</g>
</g>
<g>
	<g>
		<path d="M184.537,344.288c-12.919,0-12.941,20.078,0,20.078C197.456,364.366,197.477,344.288,184.537,344.288z"/>
	</g>
</g>
<g>
	<g>
		<path d="M121.236,45.106c-12.919,0-12.941,20.078,0,20.078C134.155,65.185,134.176,45.106,121.236,45.106z"/>
	</g>
</g>
<g>
	<g>
		<path d="M18.071,180.036c-12.919,0-12.941,20.078,0,20.078C30.99,200.115,31.011,180.036,18.071,180.036z"/>
	</g>
</g>
<g>
</g>
<g>
</g>
<g>
</g>
<g>
</g>
<g>
</g>
<g>
</g>
<g>
</g>
<g>
</g>
<g>
</g>
<g>
</g>
<g>
</g>
<g>
</g>
<g>
</g>
<g>
</g>
<g>
</g>
</svg>
