<svg id="Capa_1" enable-background="new 0 0 512.549 512.549" height="512" viewBox="0 0 512.549 512.549" width="512" xmlns="http://www.w3.org/2000/svg" fill="rgb(204, 202, 202)"><g><g><path d="m329.069 96.337-26.358 75.196-25.787-75.04c-1.348-3.921-5.618-6.007-9.538-4.659-3.92 1.347-6.007 5.617-4.659 9.538l32.815 95.492c1.039 3.023 3.879 5.057 7.075 5.066h.023c3.187 0 6.028-2.014 7.084-5.023l33.512-95.604c1.371-3.912-.689-8.195-4.601-9.566-3.91-1.373-8.194.689-9.566 4.6z"/><path d="m171.289 91.314c-4.145 0-7.506 3.361-7.506 7.506v64.249c0 21.791 17.729 38.861 40.361 38.861h1.897c22.632 0 40.361-17.07 40.361-38.861v-64.249c0-4.145-3.361-7.506-7.506-7.506s-7.506 3.361-7.506 7.506v64.249c0 13.597-10.898 23.85-25.349 23.85h-1.897c-14.451 0-25.349-10.253-25.349-23.85v-64.249c0-4.145-3.36-7.506-7.506-7.506z"/><path d="m508.372 353.878c-17.828-21.883-69.152-78.627-144.423-111.097 22.48-25.736 36.119-59.383 36.119-96.159 0-18.293-3.336-36.142-9.914-53.048-1.503-3.863-5.851-5.776-9.717-4.273-3.863 1.503-5.776 5.854-4.273 9.717 5.9 15.164 8.892 31.181 8.892 47.605 0 72.419-58.917 131.336-131.336 131.336s-131.336-58.917-131.336-131.336 58.918-131.337 131.337-131.337c42.184 0 82.086 20.482 106.736 54.79 2.418 3.367 7.109 4.134 10.475 1.716 3.367-2.419 4.135-7.109 1.716-10.475-27.463-38.223-71.921-61.042-118.927-61.042-80.696 0-146.348 65.651-146.348 146.348 0 37.547 14.218 71.832 37.546 97.767-73.264 32.704-123.205 87.963-140.742 109.488-5.57 6.836-5.57 16.759 0 23.595 25.365 31.133 118.5 132.865 251.989 134.8.037 0 .073.001.109.001s.072 0 .109-.001c133.491-1.936 226.624-103.667 251.989-134.801 5.568-6.835 5.568-16.758-.001-23.594zm-366.433 29.811c.64 4.096 4.484 6.892 8.575 6.257 4.096-.641 6.897-4.48 6.257-8.575-.806-5.154-1.214-10.434-1.214-15.694 0-34.489 17.437-64.969 43.946-83.129 16.775 6.72 35.07 10.424 54.218 10.424 20.352 0 39.736-4.195 57.359-11.739 27.612 17.981 45.913 49.109 45.913 84.445 0 56.864-49.197 103.356-105.728 100.58-35.697-1.753-67.707-22.134-84.367-54.1-1.917-3.677-6.449-5.105-10.125-3.187-3.676 1.916-5.103 6.449-3.187 10.125 6.062 11.631 13.903 21.918 23.077 30.625-58.595-23.936-98.748-66.935-112.594-83.387-.341-.405-.341-.909 0-1.315 13.862-16.471 54.103-59.539 112.811-83.457-22.357 21.114-36.336 51.01-36.336 84.115.001 6.033.47 12.093 1.395 18.012zm193.738-102.112c58.7 23.918 98.942 66.972 112.804 83.443.34.405.34.908-.001 1.314-13.865 16.474-54.109 59.568-112.833 83.485 22.372-21.115 36.358-51.024 36.358-84.142 0-33.1-13.976-62.989-36.328-84.1zm161.057 86.414c-10.334 12.685-38.905 45.326-80.906 74.387-51.46 35.606-105.142 54.071-159.553 54.884-54.412-.813-108.093-19.278-159.553-54.884-42-29.06-70.572-61.702-80.907-74.387-1.093-1.342-1.093-3.289 0-4.631 10.335-12.685 38.906-45.326 80.907-74.386 19.592-13.556 39.508-24.612 59.662-33.169 4.751 4.24 9.781 8.172 15.056 11.773-62.007 25.227-104.283 70.459-118.856 87.774-5.034 5.982-5.034 14.665 0 20.648 20.123 23.91 93.057 101.065 197.849 105.244 60.34 2.406 119.921-25.263 166.091-62.844 15.689-12.771 30.406-26.912 43.44-42.399 5.036-5.982 5.036-14.666.001-20.648-14.826-17.615-58.335-64.116-122.113-89.059 5.196-3.665 10.149-7.653 14.819-11.945 21.347 8.744 42.433 20.287 63.157 34.626 42.001 29.061 70.572 61.702 80.906 74.386 1.093 1.341 1.093 3.289 0 4.63z"/><path d="m195.352 395.808c0 3.775 1.47 7.324 4.14 9.994l16.657 16.657c2.669 2.67 6.218 4.139 9.994 4.139s7.325-1.47 9.994-4.139l20.138-20.138 20.138 20.138c2.669 2.67 6.219 4.14 9.994 4.14s7.325-1.47 9.994-4.14l16.658-16.657c2.669-2.669 4.139-6.218 4.139-9.994 0-3.775-1.47-7.325-4.139-9.994l-20.139-20.138 20.139-20.139c5.509-5.51 5.509-14.477 0-19.987l-16.658-16.657c-2.669-2.67-6.219-4.14-9.994-4.14s-7.325 1.47-9.994 4.14l-20.138 20.138-20.138-20.138c-5.511-5.511-14.478-5.511-19.988 0l-16.658 16.658c-5.51 5.51-5.51 14.477 0 19.987l20.138 20.138-20.138 20.138c-2.668 2.669-4.139 6.219-4.139 9.994zm37.327-21.952c4.511-4.511 4.511-11.85 0-16.361l-21.952-21.952 15.415-15.415 21.951 21.951c4.51 4.511 11.851 4.51 16.362 0l21.951-21.951 15.415 15.415-21.951 21.951c-2.185 2.185-3.389 5.091-3.389 8.181 0 3.091 1.204 5.996 3.388 8.181l21.952 21.952-15.415 15.415-21.952-21.952c-2.256-2.255-5.218-3.382-8.18-3.382-2.963 0-5.926 1.128-8.181 3.383l-21.951 21.951-15.415-15.415z"/></g></g></svg>